<mxfile host="Electron" agent="Mozilla/5.0 (Macintosh; Intel Mac OS X 10_15_7) AppleWebKit/537.36 (KHTML, like Gecko) draw.io/24.7.8 Chrome/128.0.6613.36 Electron/32.0.1 Safari/537.36" version="24.7.8">
  <diagram name="Page-1" id="YL36OmD8QQssiyteZkNc">
    <mxGraphModel dx="448" dy="793" grid="1" gridSize="10" guides="1" tooltips="1" connect="1" arrows="1" fold="1" page="1" pageScale="1" pageWidth="827" pageHeight="1169" math="0" shadow="0">
      <root>
        <mxCell id="0" />
        <mxCell id="1" parent="0" />
        <mxCell id="24zRQ4hFHEPNyNpWlu8i-1" value="&lt;div&gt;Существующее колличество в папках, как есть:&lt;/div&gt;&lt;div&gt;&amp;nbsp;&lt;/div&gt;&lt;b&gt;Dataframe, excel table&lt;/b&gt;" style="rounded=0;whiteSpace=wrap;html=1;" parent="1" vertex="1">
          <mxGeometry x="165" y="230" width="150" height="110" as="geometry" />
        </mxCell>
        <mxCell id="24zRQ4hFHEPNyNpWlu8i-2" value="Folders, amoutn" style="rounded=0;whiteSpace=wrap;html=1;" parent="1" vertex="1">
          <mxGeometry x="180" y="100" width="120" height="60" as="geometry" />
        </mxCell>
        <mxCell id="24zRQ4hFHEPNyNpWlu8i-3" value="Пересчет&amp;nbsp;&lt;b&gt;Dataframe по лимиту кол-ва на класс&lt;/b&gt;" style="rounded=0;whiteSpace=wrap;html=1;" parent="1" vertex="1">
          <mxGeometry x="165" y="400" width="150" height="60" as="geometry" />
        </mxCell>
        <mxCell id="24zRQ4hFHEPNyNpWlu8i-4" value="" style="endArrow=classic;html=1;rounded=0;" parent="1" edge="1">
          <mxGeometry width="50" height="50" relative="1" as="geometry">
            <mxPoint x="239.5" y="170" as="sourcePoint" />
            <mxPoint x="239.5" y="210" as="targetPoint" />
          </mxGeometry>
        </mxCell>
        <mxCell id="24zRQ4hFHEPNyNpWlu8i-5" value="" style="endArrow=classic;html=1;rounded=0;" parent="1" edge="1">
          <mxGeometry width="50" height="50" relative="1" as="geometry">
            <mxPoint x="239.6" y="350" as="sourcePoint" />
            <mxPoint x="239.6" y="390" as="targetPoint" />
          </mxGeometry>
        </mxCell>
        <mxCell id="24zRQ4hFHEPNyNpWlu8i-6" value="Перераспределение в отдельную папку, текущих папок.&amp;nbsp;" style="rounded=0;whiteSpace=wrap;html=1;" parent="1" vertex="1">
          <mxGeometry x="60" y="524.5" width="150" height="60" as="geometry" />
        </mxCell>
        <mxCell id="24zRQ4hFHEPNyNpWlu8i-7" value="" style="endArrow=classic;html=1;rounded=0;" parent="1" edge="1">
          <mxGeometry width="50" height="50" relative="1" as="geometry">
            <mxPoint x="239.6" y="470" as="sourcePoint" />
            <mxPoint x="150" y="510" as="targetPoint" />
          </mxGeometry>
        </mxCell>
        <mxCell id="24zRQ4hFHEPNyNpWlu8i-8" value="" style="endArrow=classic;html=1;rounded=0;" parent="1" edge="1">
          <mxGeometry width="50" height="50" relative="1" as="geometry">
            <mxPoint x="260" y="470" as="sourcePoint" />
            <mxPoint x="330" y="510" as="targetPoint" />
          </mxGeometry>
        </mxCell>
        <mxCell id="24zRQ4hFHEPNyNpWlu8i-9" value="Сбор train/val dataset" style="rounded=0;whiteSpace=wrap;html=1;" parent="1" vertex="1">
          <mxGeometry x="264" y="525" width="150" height="60" as="geometry" />
        </mxCell>
      </root>
    </mxGraphModel>
  </diagram>
</mxfile>
